<?xml version="1.0" encoding="UTF-8"?>
<svg xmlns="http://www.w3.org/2000/svg" xmlns:xlink="http://www.w3.org/1999/xlink" width="33pt" height="18pt" viewBox="0 0 33 18" version="1.1">
<defs>
<clipPath id="clip1">
  <path d="M 0.464844 8.992188 C 0.464844 13.695312 7.644531 17.511719 16.503906 17.511719 C 25.363281 17.511719 32.546875 13.695312 32.546875 8.992188 C 32.546875 4.285156 25.363281 0.46875 16.503906 0.46875 C 7.644531 0.46875 0.464844 4.285156 0.464844 8.992188 "/>
</clipPath>
<radialGradient id="radial0" gradientUnits="userSpaceOnUse" cx="0" cy="0" fx="0" fy="0" r="1" gradientTransform="matrix(21.063485,0,0,21.272923,10.094938,3.464758)">
<stop offset="0" style="stop-color:rgb(68.235294%,69.803922%,83.529412%);stop-opacity:1;"/>
<stop offset="0.3" style="stop-color:rgb(68.235294%,69.803922%,83.529412%);stop-opacity:1;"/>
<stop offset="0.75" style="stop-color:rgb(28.235294%,29.803922%,53.72549%);stop-opacity:1;"/>
<stop offset="1" style="stop-color:rgb(28.235294%,29.803922%,53.72549%);stop-opacity:1;"/>
</radialGradient>
</defs>
<g id="surface1">
<g clip-path="url(#clip1)" clip-rule="nonzero">
<path style=" stroke:none;fill-rule:nonzero;fill:url(#radial0);" d="M 0.464844 8.992188 C 0.464844 13.695312 7.644531 17.511719 16.503906 17.511719 C 25.363281 17.511719 32.546875 13.695312 32.546875 8.992188 C 32.546875 4.285156 25.363281 0.46875 16.503906 0.46875 C 7.644531 0.46875 0.464844 4.285156 0.464844 8.992188 "/>
</g>
<path style=" stroke:none;fill-rule:nonzero;fill:rgb(46.666667%,48.235294%,70.196078%);fill-opacity:1;" d="M 16.503906 16.878906 C 25.015625 16.878906 31.917969 13.347656 31.917969 8.992188 C 31.917969 4.632812 25.015625 1.101562 16.503906 1.101562 C 7.992188 1.101562 1.089844 4.632812 1.089844 8.992188 C 1.089844 13.347656 7.992188 16.878906 16.503906 16.878906 "/>
<path style=" stroke:none;fill-rule:nonzero;fill:rgb(0%,0%,0%);fill-opacity:1;" d="M 9.179688 9.96875 C 9.878906 9.96875 10.402344 9.839844 10.730469 9.582031 C 11.058594 9.328125 11.285156 8.886719 11.402344 8.273438 C 11.515625 7.695312 11.472656 7.296875 11.277344 7.078125 C 11.082031 6.859375 10.652344 6.746094 10.007812 6.746094 L 8.890625 6.746094 L 8.269531 9.96875 Z M 5.519531 13.9375 C 5.46875 13.9375 5.417969 13.914062 5.386719 13.875 C 5.351562 13.832031 5.339844 13.78125 5.347656 13.730469 L 6.992188 5.1875 C 7.007812 5.105469 7.082031 5.046875 7.164062 5.046875 L 10.707031 5.046875 C 11.820312 5.046875 12.648438 5.351562 13.167969 5.953125 C 13.691406 6.558594 13.855469 7.40625 13.648438 8.46875 C 13.566406 8.902344 13.421875 9.304688 13.222656 9.664062 C 13.023438 10.027344 12.761719 10.359375 12.441406 10.65625 C 12.054688 11.019531 11.621094 11.28125 11.148438 11.4375 C 10.683594 11.589844 10.089844 11.667969 9.378906 11.667969 L 7.941406 11.667969 L 7.535156 13.796875 C 7.515625 13.878906 7.445312 13.9375 7.363281 13.9375 Z M 5.519531 13.9375 "/>
<path style=" stroke:none;fill-rule:nonzero;fill:rgb(100%,100%,100%);fill-opacity:1;" d="M 9.035156 6.921875 L 10.007812 6.921875 C 10.789062 6.921875 11.058594 7.09375 11.148438 7.195312 C 11.300781 7.367188 11.332031 7.726562 11.234375 8.238281 C 11.121094 8.808594 10.917969 9.214844 10.625 9.441406 C 10.328125 9.675781 9.839844 9.792969 9.179688 9.792969 L 8.480469 9.792969 Z M 10.707031 4.871094 L 7.164062 4.871094 C 6.996094 4.871094 6.855469 4.992188 6.820312 5.15625 L 5.179688 13.695312 C 5.160156 13.796875 5.1875 13.90625 5.25 13.984375 C 5.316406 14.066406 5.417969 14.113281 5.519531 14.113281 L 7.363281 14.113281 C 7.527344 14.113281 7.671875 13.996094 7.703125 13.828125 L 8.085938 11.84375 L 9.378906 11.84375 C 10.105469 11.84375 10.722656 11.761719 11.203125 11.605469 C 11.699219 11.441406 12.15625 11.167969 12.558594 10.785156 C 12.890625 10.476562 13.167969 10.128906 13.375 9.75 C 13.582031 9.375 13.734375 8.953125 13.820312 8.503906 C 14.035156 7.382812 13.859375 6.488281 13.300781 5.839844 C 12.746094 5.195312 11.871094 4.871094 10.707031 4.871094 M 8.058594 10.144531 L 9.179688 10.144531 C 9.921875 10.144531 10.476562 10.003906 10.839844 9.71875 C 11.203125 9.4375 11.445312 8.964844 11.574219 8.304688 C 11.695312 7.671875 11.640625 7.222656 11.40625 6.960938 C 11.175781 6.699219 10.707031 6.570312 10.007812 6.570312 L 8.746094 6.570312 L 8.058594 10.144531 M 10.707031 5.222656 C 11.773438 5.222656 12.550781 5.503906 13.039062 6.070312 C 13.527344 6.636719 13.671875 7.421875 13.476562 8.4375 C 13.398438 8.851562 13.261719 9.234375 13.070312 9.578125 C 12.878906 9.925781 12.628906 10.242188 12.320312 10.527344 C 11.953125 10.875 11.546875 11.121094 11.097656 11.269531 C 10.644531 11.417969 10.074219 11.492188 9.378906 11.492188 L 7.800781 11.492188 L 7.363281 13.761719 L 5.519531 13.761719 L 7.164062 5.222656 L 10.707031 5.222656 "/>
<path style=" stroke:none;fill-rule:nonzero;fill:rgb(0%,0%,0%);fill-opacity:1;" d="M 17.871094 11.667969 C 17.820312 11.667969 17.773438 11.644531 17.738281 11.605469 C 17.707031 11.5625 17.691406 11.511719 17.703125 11.457031 L 18.429688 7.679688 C 18.5 7.320312 18.480469 7.0625 18.382812 6.953125 C 18.320312 6.886719 18.136719 6.773438 17.589844 6.773438 L 16.273438 6.773438 L 15.359375 11.527344 C 15.34375 11.609375 15.273438 11.667969 15.191406 11.667969 L 13.363281 11.667969 C 13.308594 11.667969 13.261719 11.644531 13.226562 11.605469 C 13.195312 11.5625 13.179688 11.511719 13.191406 11.457031 L 14.835938 2.917969 C 14.851562 2.835938 14.921875 2.777344 15.003906 2.777344 L 16.832031 2.777344 C 16.886719 2.777344 16.933594 2.800781 16.96875 2.839844 C 17 2.878906 17.015625 2.933594 17.003906 2.984375 L 16.605469 5.046875 L 18.023438 5.046875 C 19.105469 5.046875 19.835938 5.238281 20.261719 5.632812 C 20.695312 6.039062 20.832031 6.683594 20.664062 7.550781 L 19.898438 11.527344 C 19.882812 11.609375 19.8125 11.667969 19.730469 11.667969 Z M 17.871094 11.667969 "/>
<path style=" stroke:none;fill-rule:nonzero;fill:rgb(100%,100%,100%);fill-opacity:1;" d="M 16.832031 2.601562 L 15.003906 2.601562 C 14.839844 2.601562 14.695312 2.71875 14.664062 2.886719 L 13.019531 11.425781 C 13 11.527344 13.027344 11.632812 13.09375 11.714844 C 13.160156 11.796875 13.257812 11.84375 13.363281 11.84375 L 15.191406 11.84375 C 15.355469 11.84375 15.5 11.722656 15.53125 11.558594 L 16.417969 6.949219 L 17.589844 6.949219 C 18.136719 6.949219 18.25 7.066406 18.253906 7.074219 C 18.285156 7.109375 18.328125 7.273438 18.257812 7.644531 L 17.53125 11.425781 C 17.511719 11.527344 17.539062 11.632812 17.605469 11.714844 C 17.671875 11.796875 17.769531 11.84375 17.871094 11.84375 L 19.730469 11.84375 C 19.894531 11.84375 20.039062 11.722656 20.070312 11.558594 L 20.835938 7.585938 C 21.015625 6.652344 20.863281 5.953125 20.378906 5.503906 C 19.917969 5.078125 19.148438 4.871094 18.023438 4.871094 L 16.820312 4.871094 L 17.175781 3.019531 C 17.195312 2.917969 17.167969 2.808594 17.101562 2.726562 C 17.035156 2.648438 16.9375 2.601562 16.832031 2.601562 M 16.832031 2.953125 L 16.394531 5.222656 L 18.023438 5.222656 C 19.046875 5.222656 19.753906 5.402344 20.144531 5.765625 C 20.53125 6.125 20.648438 6.710938 20.492188 7.519531 L 19.730469 11.492188 L 17.871094 11.492188 L 18.601562 7.714844 C 18.683594 7.285156 18.652344 6.992188 18.507812 6.835938 C 18.363281 6.679688 18.058594 6.597656 17.589844 6.597656 L 16.132812 6.597656 L 15.191406 11.492188 L 13.363281 11.492188 L 15.003906 2.953125 L 16.832031 2.953125 "/>
<path style=" stroke:none;fill-rule:nonzero;fill:rgb(0%,0%,0%);fill-opacity:1;" d="M 23.554688 9.96875 C 24.257812 9.96875 24.777344 9.839844 25.109375 9.582031 C 25.4375 9.328125 25.664062 8.886719 25.78125 8.273438 C 25.890625 7.695312 25.847656 7.296875 25.65625 7.078125 C 25.457031 6.859375 25.03125 6.746094 24.386719 6.746094 L 23.265625 6.746094 L 22.648438 9.96875 Z M 19.898438 13.9375 C 19.847656 13.9375 19.796875 13.914062 19.761719 13.875 C 19.730469 13.832031 19.71875 13.78125 19.726562 13.730469 L 21.371094 5.1875 C 21.386719 5.105469 21.457031 5.046875 21.542969 5.046875 L 25.082031 5.046875 C 26.195312 5.046875 27.027344 5.351562 27.546875 5.953125 C 28.070312 6.558594 28.230469 7.40625 28.027344 8.46875 C 27.945312 8.902344 27.800781 9.304688 27.601562 9.664062 C 27.402344 10.027344 27.136719 10.359375 26.816406 10.65625 C 26.433594 11.019531 26 11.28125 25.527344 11.4375 C 25.0625 11.589844 24.464844 11.667969 23.753906 11.667969 L 22.320312 11.667969 L 21.910156 13.796875 C 21.894531 13.878906 21.824219 13.9375 21.738281 13.9375 Z M 19.898438 13.9375 "/>
<path style=" stroke:none;fill-rule:nonzero;fill:rgb(100%,100%,100%);fill-opacity:1;" d="M 23.410156 6.921875 L 24.386719 6.921875 C 25.164062 6.921875 25.433594 7.09375 25.527344 7.195312 C 25.679688 7.367188 25.707031 7.726562 25.609375 8.238281 C 25.5 8.808594 25.296875 9.214844 25.003906 9.441406 C 24.703125 9.675781 24.21875 9.792969 23.554688 9.792969 L 22.859375 9.792969 Z M 25.082031 4.871094 L 21.542969 4.871094 C 21.375 4.871094 21.230469 4.992188 21.199219 5.15625 L 19.554688 13.695312 C 19.535156 13.796875 19.5625 13.90625 19.628906 13.984375 C 19.695312 14.066406 19.792969 14.113281 19.898438 14.113281 L 21.738281 14.113281 C 21.90625 14.113281 22.050781 13.996094 22.082031 13.828125 L 22.464844 11.84375 L 23.753906 11.84375 C 24.484375 11.84375 25.097656 11.761719 25.582031 11.605469 C 26.078125 11.441406 26.53125 11.167969 26.9375 10.785156 C 27.269531 10.476562 27.542969 10.128906 27.753906 9.75 C 27.960938 9.375 28.109375 8.953125 28.199219 8.503906 C 28.414062 7.382812 28.238281 6.488281 27.675781 5.839844 C 27.121094 5.195312 26.25 4.871094 25.082031 4.871094 M 22.4375 10.144531 L 23.554688 10.144531 C 24.300781 10.144531 24.851562 10.003906 25.214844 9.71875 C 25.578125 9.4375 25.824219 8.964844 25.953125 8.304688 C 26.074219 7.671875 26.019531 7.222656 25.785156 6.960938 C 25.550781 6.699219 25.085938 6.570312 24.386719 6.570312 L 23.125 6.570312 L 22.4375 10.144531 M 25.082031 5.222656 C 26.148438 5.222656 26.925781 5.503906 27.414062 6.070312 C 27.902344 6.636719 28.050781 7.421875 27.855469 8.4375 C 27.777344 8.851562 27.640625 9.234375 27.449219 9.578125 C 27.257812 9.925781 27.007812 10.242188 26.699219 10.527344 C 26.332031 10.875 25.921875 11.121094 25.472656 11.269531 C 25.023438 11.417969 24.449219 11.492188 23.753906 11.492188 L 22.175781 11.492188 L 21.738281 13.761719 L 19.898438 13.761719 L 21.542969 5.222656 L 25.082031 5.222656 "/>
</g>
</svg>
