<?xml version="1.0" encoding="UTF-8"?>
<svg xmlns="http://www.w3.org/2000/svg" xmlns:xlink="http://www.w3.org/1999/xlink" width="20pt" height="20pt" viewBox="0 0 20 20" version="1.1">
<g id="surface1">
<path style=" stroke:none;fill-rule:nonzero;fill:rgb(0%,0%,0%);fill-opacity:1;" d="M 19.90625 14.609375 C 19.882812 14.558594 19.859375 14.515625 19.839844 14.480469 C 19.492188 13.855469 18.828125 13.085938 17.847656 12.175781 L 17.816406 12.144531 L 17.808594 12.132812 L 17.796875 12.132812 C 17.351562 11.710938 17.070312 11.425781 16.953125 11.28125 C 16.738281 11.003906 16.6875 10.722656 16.808594 10.4375 C 16.890625 10.21875 17.203125 9.765625 17.746094 9.070312 C 18.03125 8.703125 18.253906 8.40625 18.421875 8.183594 C 19.625 6.585938 20.144531 5.566406 19.984375 5.121094 L 19.921875 5.019531 C 19.882812 4.957031 19.773438 4.898438 19.601562 4.847656 C 19.425781 4.792969 19.203125 4.785156 18.933594 4.820312 L 15.933594 4.839844 C 15.882812 4.824219 15.8125 4.824219 15.722656 4.847656 C 15.632812 4.867188 15.589844 4.878906 15.589844 4.878906 L 15.535156 4.902344 L 15.496094 4.933594 C 15.460938 4.957031 15.421875 4.992188 15.378906 5.042969 C 15.339844 5.097656 15.304688 5.15625 15.277344 5.226562 C 14.949219 6.066406 14.578125 6.847656 14.160156 7.570312 C 13.902344 8 13.667969 8.375 13.453125 8.691406 C 13.238281 9.007812 13.054688 9.238281 12.910156 9.390625 C 12.765625 9.539062 12.632812 9.660156 12.515625 9.75 C 12.394531 9.839844 12.304688 9.878906 12.242188 9.863281 C 12.179688 9.847656 12.121094 9.835938 12.066406 9.820312 C 11.96875 9.757812 11.890625 9.675781 11.832031 9.566406 C 11.773438 9.457031 11.734375 9.324219 11.710938 9.160156 C 11.691406 8.996094 11.679688 8.855469 11.675781 8.738281 C 11.671875 8.621094 11.671875 8.453125 11.679688 8.238281 C 11.6875 8.023438 11.691406 7.875 11.691406 7.800781 C 11.691406 7.535156 11.695312 7.25 11.707031 6.941406 C 11.71875 6.632812 11.726562 6.386719 11.734375 6.207031 C 11.738281 6.023438 11.742188 5.835938 11.742188 5.632812 C 11.742188 5.429688 11.730469 5.273438 11.707031 5.160156 C 11.683594 5.042969 11.644531 4.933594 11.597656 4.824219 C 11.550781 4.71875 11.476562 4.632812 11.382812 4.574219 C 11.289062 4.515625 11.171875 4.46875 11.035156 4.433594 C 10.667969 4.351562 10.199219 4.304688 9.628906 4.300781 C 8.335938 4.285156 7.507812 4.367188 7.136719 4.550781 C 6.992188 4.625 6.859375 4.730469 6.742188 4.863281 C 6.617188 5.015625 6.597656 5.097656 6.691406 5.113281 C 7.105469 5.175781 7.402344 5.324219 7.574219 5.558594 L 7.636719 5.683594 C 7.6875 5.773438 7.734375 5.933594 7.785156 6.164062 C 7.832031 6.394531 7.863281 6.648438 7.878906 6.925781 C 7.914062 7.433594 7.914062 7.867188 7.878906 8.226562 C 7.84375 8.589844 7.808594 8.871094 7.777344 9.070312 C 7.746094 9.273438 7.699219 9.4375 7.636719 9.5625 C 7.574219 9.6875 7.535156 9.761719 7.511719 9.789062 C 7.492188 9.816406 7.472656 9.835938 7.460938 9.84375 C 7.371094 9.875 7.277344 9.894531 7.179688 9.894531 C 7.082031 9.894531 6.964844 9.84375 6.824219 9.75 C 6.6875 9.652344 6.542969 9.515625 6.394531 9.347656 C 6.242188 9.175781 6.074219 8.9375 5.886719 8.632812 C 5.699219 8.328125 5.503906 7.964844 5.304688 7.550781 L 5.136719 7.246094 C 5.03125 7.054688 4.890625 6.769531 4.710938 6.398438 C 4.527344 6.027344 4.371094 5.667969 4.230469 5.320312 C 4.175781 5.175781 4.089844 5.0625 3.980469 4.988281 L 3.929688 4.953125 C 3.894531 4.925781 3.839844 4.898438 3.761719 4.867188 C 3.683594 4.835938 3.605469 4.8125 3.523438 4.796875 L 0.667969 4.820312 C 0.375 4.820312 0.175781 4.886719 0.0742188 5.019531 L 0.03125 5.078125 C 0.0117188 5.113281 0 5.171875 0 5.246094 C 0 5.324219 0.0195312 5.417969 0.0625 5.527344 C 0.480469 6.507812 0.933594 7.453125 1.421875 8.363281 C 1.910156 9.273438 2.335938 10.003906 2.699219 10.5625 C 3.058594 11.117188 3.429688 11.640625 3.804688 12.132812 C 4.179688 12.628906 4.425781 12.945312 4.546875 13.082031 C 4.667969 13.222656 4.765625 13.324219 4.835938 13.394531 L 5.09375 13.644531 C 5.261719 13.8125 5.507812 14.011719 5.828125 14.246094 C 6.152344 14.476562 6.511719 14.707031 6.902344 14.933594 C 7.296875 15.15625 7.753906 15.34375 8.273438 15.484375 C 8.792969 15.625 9.300781 15.683594 9.792969 15.65625 L 10.992188 15.65625 C 11.234375 15.636719 11.421875 15.558594 11.546875 15.425781 L 11.585938 15.375 C 11.613281 15.332031 11.640625 15.269531 11.664062 15.183594 C 11.6875 15.09375 11.703125 15 11.703125 14.894531 C 11.695312 14.597656 11.71875 14.328125 11.769531 14.089844 C 11.820312 13.847656 11.878906 13.667969 11.945312 13.546875 C 12.011719 13.425781 12.085938 13.324219 12.171875 13.238281 C 12.253906 13.15625 12.3125 13.105469 12.347656 13.089844 C 12.382812 13.070312 12.410156 13.058594 12.429688 13.050781 C 12.597656 12.996094 12.792969 13.050781 13.019531 13.214844 C 13.246094 13.375 13.457031 13.578125 13.65625 13.816406 C 13.851562 14.058594 14.089844 14.328125 14.367188 14.625 C 14.648438 14.921875 14.890625 15.144531 15.097656 15.292969 L 15.308594 15.417969 C 15.445312 15.5 15.625 15.578125 15.847656 15.644531 C 16.070312 15.714844 16.265625 15.734375 16.433594 15.699219 L 19.101562 15.65625 C 19.363281 15.65625 19.570312 15.613281 19.714844 15.527344 C 19.859375 15.441406 19.945312 15.34375 19.976562 15.238281 C 20.003906 15.136719 20.003906 15.015625 19.980469 14.886719 C 19.957031 14.753906 19.929688 14.660156 19.90625 14.609375 Z M 19.90625 14.609375 "/>
</g>
</svg>
