<?xml version="1.0" encoding="UTF-8"?>
<svg xmlns="http://www.w3.org/2000/svg" xmlns:xlink="http://www.w3.org/1999/xlink" width="20pt" height="20pt" viewBox="0 0 20 20" version="1.1">
<g id="surface1">
<path style=" stroke:none;fill-rule:nonzero;fill:rgb(0%,49.803922%,24.705882%);fill-opacity:1;" d="M 19.992188 9.996094 C 19.992188 4.476562 15.519531 0 9.996094 0 C 4.476562 0 0 4.476562 0 9.996094 C 0 15.515625 4.476562 19.992188 9.996094 19.992188 C 15.519531 19.992188 19.992188 15.515625 19.992188 9.996094 Z M 19.992188 9.996094 "/>
<path style=" stroke:none;fill-rule:nonzero;fill:rgb(100%,100%,100%);fill-opacity:1;" d="M 4.386719 5.570312 C 4.113281 5.570312 3.886719 5.792969 3.886719 6.066406 L 3.886719 13.921875 C 3.886719 14.199219 4.109375 14.421875 4.386719 14.421875 L 15.609375 14.421875 C 15.882812 14.421875 16.105469 14.199219 16.105469 13.921875 L 16.105469 6.066406 C 16.105469 5.792969 15.882812 5.570312 15.609375 5.570312 Z M 5.714844 6.761719 L 14.277344 6.761719 L 9.996094 10.503906 Z M 15.109375 7.359375 L 15.109375 12.882812 L 11.980469 10.09375 Z M 4.882812 7.363281 L 8.027344 10.109375 L 4.882812 12.910156 Z M 11.222656 10.753906 L 14.203125 13.410156 L 5.824219 13.410156 L 8.785156 10.769531 L 9.667969 11.542969 C 9.855469 11.703125 10.136719 11.703125 10.324219 11.542969 Z M 11.222656 10.753906 "/>
</g>
</svg>
