<?xml version="1.0" encoding="UTF-8"?>
<svg xmlns="http://www.w3.org/2000/svg" xmlns:xlink="http://www.w3.org/1999/xlink" width="20pt" height="20pt" viewBox="0 0 20 20" version="1.1">
<g id="surface1">
<path style=" stroke:none;fill-rule:nonzero;fill:rgb(0%,50.196078%,0%);fill-opacity:1;" d="M 1.800781 0 L 18.199219 0 C 19.191406 0 20 0.808594 20 1.800781 L 20 18.199219 C 20 19.191406 19.191406 20 18.199219 20 L 1.800781 20 C 0.808594 20 0 19.191406 0 18.199219 L 0 1.800781 C 0 0.808594 0.808594 0 1.800781 0 Z M 1.800781 0 "/>
<path style=" stroke:none;fill-rule:nonzero;fill:rgb(100%,100%,100%);fill-opacity:1;" d="M 3.222656 12.890625 C 3.210938 13.136719 3.207031 13.378906 3.207031 13.628906 C 3.269531 14.15625 3.425781 14.683594 3.667969 15.160156 C 4.089844 15.796875 4.667969 16.324219 5.34375 16.703125 C 5.78125 16.9375 6.285156 16.984375 6.75 16.835938 C 11.476562 15.347656 15.183594 11.65625 16.703125 6.9375 C 16.871094 6.398438 16.8125 5.808594 16.53125 5.320312 C 16.316406 4.960938 16.085938 4.621094 15.808594 4.332031 C 15.15625 3.660156 14.316406 3.226562 13.410156 3.058594 C 13.300781 3.035156 13.175781 3.074219 13.089844 3.160156 C 13.050781 3.203125 13.019531 3.269531 13.007812 3.328125 L 12.109375 6.90625 C 12.0625 7.089844 12.167969 7.28125 12.355469 7.332031 L 13.46875 7.65625 C 13.535156 7.675781 13.582031 7.710938 13.625 7.75 C 13.769531 7.894531 13.761719 8.117188 13.617188 8.261719 L 8.25 13.628906 C 8.109375 13.773438 7.882812 13.78125 7.742188 13.636719 C 7.691406 13.585938 7.660156 13.519531 7.644531 13.453125 L 7.515625 12.773438 C 7.472656 12.597656 7.320312 12.484375 7.15625 12.484375 L 3.574219 12.558594 C 3.484375 12.5625 3.402344 12.597656 3.335938 12.664062 C 3.273438 12.726562 3.238281 12.808594 3.222656 12.890625 Z M 3.222656 12.890625 "/>
</g>
</svg>
