<?xml version="1.0" encoding="UTF-8"?>
<svg xmlns="http://www.w3.org/2000/svg" xmlns:xlink="http://www.w3.org/1999/xlink" width="20pt" height="20pt" viewBox="0 0 20 20" version="1.1">
<defs>
<clipPath id="clip1">
  <path d="M 7.089844 0.496094 L 12.921875 0.496094 C 18.246094 0.496094 19.503906 1.761719 19.503906 7.089844 L 19.503906 12.921875 C 19.503906 18.246094 18.238281 19.503906 12.910156 19.503906 L 7.078125 19.503906 C 1.753906 19.503906 0.496094 18.238281 0.496094 12.910156 L 0.496094 7.078125 C 0.496094 1.761719 1.761719 0.496094 7.089844 0.496094 Z M 7.089844 0.496094 "/>
</clipPath>
</defs>
<g id="surface1">
<path style=" stroke:none;fill-rule:evenodd;fill:rgb(31.764706%,50.588235%,72.156863%);fill-opacity:1;" d="M 7.089844 0.496094 L 12.921875 0.496094 C 18.246094 0.496094 19.503906 1.761719 19.503906 7.089844 L 19.503906 12.921875 C 19.503906 18.246094 18.238281 19.503906 12.910156 19.503906 L 7.078125 19.503906 C 1.753906 19.503906 0.496094 18.238281 0.496094 12.910156 L 0.496094 7.078125 C 0.496094 1.761719 1.761719 0.496094 7.089844 0.496094 Z M 7.089844 0.496094 "/>
<g clip-path="url(#clip1)" clip-rule="nonzero">
<rect x="0" y="0" width="20" height="20" style="fill:rgb(31.764706%,50.588235%,72.156863%);fill-opacity:1;stroke:none;"/>
</g>
<path style=" stroke:none;fill-rule:evenodd;fill:rgb(100%,100%,100%);fill-opacity:1;" d="M 16.058594 7.039062 C 16.148438 6.742188 16.058594 6.535156 15.644531 6.535156 L 14.257812 6.535156 C 13.902344 6.535156 13.742188 6.722656 13.652344 6.929688 C 13.652344 6.929688 12.949219 8.652344 11.949219 9.761719 C 11.625 10.089844 11.484375 10.1875 11.308594 10.1875 C 11.21875 10.1875 11.089844 10.089844 11.089844 9.792969 L 11.089844 7.039062 C 11.089844 6.683594 10.988281 6.535156 10.691406 6.535156 L 8.515625 6.535156 C 8.296875 6.535156 8.160156 6.703125 8.160156 6.851562 C 8.160156 7.1875 8.652344 7.265625 8.710938 8.199219 L 8.710938 10.238281 C 8.710938 10.683594 8.632812 10.761719 8.457031 10.761719 C 7.988281 10.761719 6.839844 9.039062 6.167969 7.058594 C 6.03125 6.691406 5.902344 6.535156 5.542969 6.535156 L 4.160156 6.535156 C 3.761719 6.535156 3.683594 6.722656 3.683594 6.929688 C 3.683594 7.296875 4.148438 9.117188 5.871094 11.523438 C 7.019531 13.167969 8.632812 14.058594 10.097656 14.058594 C 10.980469 14.058594 11.089844 13.863281 11.089844 13.523438 L 11.089844 12.277344 C 11.089844 11.882812 11.167969 11.800781 11.457031 11.800781 C 11.664062 11.800781 12.011719 11.902344 12.832031 12.691406 C 13.773438 13.632812 13.929688 14.058594 14.457031 14.058594 L 15.839844 14.058594 C 16.238281 14.058594 16.4375 13.863281 16.316406 13.476562 C 16.1875 13.089844 15.742188 12.523438 15.148438 11.851562 C 14.820312 11.464844 14.335938 11.058594 14.199219 10.851562 C 13.988281 10.585938 14.050781 10.464844 14.199219 10.238281 C 14.199219 10.226562 15.890625 7.851562 16.058594 7.039062 Z M 16.058594 7.039062 "/>
</g>
</svg>
